<svg width="92" height="58" viewBox="0 0 92 58" fill="none" xmlns="http://www.w3.org/2000/svg">
<path d="M16.7646 31.4426H12.1063L24.9166 15.564L37.5327 31.4426H33.0685L24.9166 21.2349L16.7646 31.4426Z" fill="white" fill-opacity="0.65"/>
<path d="M42.8856 15.564H38.8709V31.4426H42.8856V15.564Z" fill="white" fill-opacity="0.65"/>
<path d="M61.9274 34.043V31.3204H63.5343C63.9266 31.3204 64.2485 31.3664 64.4997 31.4582C64.7554 31.5501 64.945 31.6966 65.0684 31.8978C65.1919 32.0989 65.2536 32.3592 65.2536 32.6784C65.2536 32.9671 65.1875 33.2142 65.0552 33.4198C64.923 33.621 64.729 33.7762 64.4733 33.8856C64.222 33.9905 63.9156 34.043 63.5541 34.043H61.9274Z" fill="white" fill-opacity="0.65"/>
<path d="M61.9274 35.2436H63.8781C64.2617 35.2436 64.5725 35.307 64.8105 35.4338C65.0486 35.5563 65.2227 35.7334 65.3329 35.9652C65.4432 36.1926 65.4983 36.4616 65.4983 36.7721C65.4983 37.0695 65.4343 37.3298 65.3065 37.5528C65.1831 37.7715 64.9957 37.9443 64.7444 38.0711C64.4931 38.1936 64.1801 38.2548 63.8054 38.2548H61.9274V35.2436Z" fill="white" fill-opacity="0.65"/>
<path d="M70.0875 35.0008C70.0609 35.1114 70.0393 35.2273 70.0227 35.3485H73.1095V35.2239C73.1007 34.9396 73.0434 34.6728 72.9376 34.4235C72.8362 34.1742 72.6797 33.973 72.4681 33.82C72.2565 33.6669 71.9743 33.5903 71.6216 33.5903C71.3571 33.5903 71.1213 33.6472 70.9141 33.7609C70.7113 33.8703 70.5416 34.0299 70.4049 34.2398C70.2682 34.4498 70.1624 34.7034 70.0875 35.0008Z" fill="white" fill-opacity="0.65"/>
<path d="M84.4702 37.5565C84.4378 37.6196 84.3982 37.684 84.3511 37.7496C84.2101 37.9421 84.0161 38.1061 83.7692 38.2417C83.5267 38.3729 83.2424 38.4385 82.9162 38.4385C82.6737 38.4385 82.4665 38.3947 82.2946 38.3073C82.1271 38.2198 81.9992 38.0995 81.911 37.9465C81.8229 37.789 81.7788 37.6162 81.7788 37.4282C81.7788 37.2401 81.8163 37.0717 81.8912 36.923C81.9661 36.7743 82.0786 36.6475 82.2284 36.5425C82.3783 36.4376 82.5657 36.3588 82.7905 36.3064C83.0154 36.2495 83.2755 36.2211 83.5708 36.2211H84.4702V37.5565Z" fill="white" fill-opacity="0.65"/>
<path fill-rule="evenodd" clip-rule="evenodd" d="M51.7091 0.5H5.74546C2.58546 0.5 0 3.065 0 6.2V57.5L11.4909 46.1H51.7091C51.9583 46.1 52.2039 46.084 52.445 46.0531V46.0984H87.9445C90.1843 46.0984 92 44.297 92 42.0749V27.993C92 25.7709 90.1843 23.9696 87.9445 23.9696H57.4546V6.2C57.4546 3.065 54.8691 0.5 51.7091 0.5ZM51.7091 40.4H11.4909L5.74546 46.1V6.2H51.7091V40.4ZM65.7892 34.4629C65.7061 34.509 65.6184 34.551 65.5261 34.5888C65.7541 34.647 65.9564 34.7319 66.1331 34.8434C66.4769 35.0577 66.7326 35.3354 66.9002 35.6766C67.0677 36.0177 67.1514 36.3851 67.1514 36.7787C67.1514 37.3866 67.017 37.8962 66.7481 38.3073C66.4836 38.7184 66.1022 39.0311 65.6041 39.2454C65.1059 39.4553 64.5063 39.5603 63.8054 39.5603H60.2676V30.0084H63.5343C64.0633 30.0084 64.535 30.0587 64.9494 30.1593C65.3682 30.2598 65.7231 30.4173 66.0141 30.6316C66.3094 30.8415 66.532 31.1083 66.6819 31.432C66.8362 31.7556 66.9134 32.1405 66.9134 32.5866C66.9134 32.9802 66.8186 33.341 66.629 33.6691C66.4395 33.9927 66.1595 34.2573 65.7892 34.4629ZM71.82 39.6915C71.291 39.6915 70.8127 39.6062 70.3851 39.4357C69.9618 39.2607 69.6004 39.018 69.3006 38.7075C69.0052 38.3969 68.7782 38.0317 68.6195 37.6119C68.4608 37.192 68.3814 36.7393 68.3814 36.2539V35.9915C68.3814 35.436 68.463 34.933 68.6261 34.4826C68.7892 34.0321 69.0162 33.6472 69.3072 33.3279C69.5981 33.0043 69.942 32.7572 70.3388 32.5866C70.7355 32.416 71.1654 32.3307 71.6283 32.3307C72.1396 32.3307 72.5871 32.416 72.9706 32.5866C73.3542 32.7572 73.6716 32.9977 73.9229 33.3082C74.1786 33.6144 74.3681 33.9796 74.4916 34.4038C74.6194 34.8281 74.6833 35.296 74.6833 35.8078V36.4835H69.9896C70.0053 36.7079 70.0446 36.92 70.1073 37.1198C70.1955 37.3823 70.3233 37.6119 70.4909 37.8087C70.6584 38.0055 70.8612 38.1608 71.0992 38.2745C71.3373 38.3838 71.6084 38.4385 71.9126 38.4385C72.2961 38.4385 72.6378 38.3619 72.9376 38.2089C73.2374 38.0558 73.4975 37.8393 73.7179 37.5594L74.5577 38.3663C74.4034 38.5894 74.2028 38.8037 73.9559 39.0092C73.7091 39.2104 73.4071 39.3744 73.05 39.5013C72.6973 39.6281 72.2873 39.6915 71.82 39.6915ZM79.2064 32.462V33.6166H77.9302V37.5988C77.9302 37.8174 77.961 37.9858 78.0228 38.1039C78.0889 38.2176 78.1793 38.2942 78.2939 38.3335C78.4085 38.3729 78.543 38.3926 78.6973 38.3926C78.8075 38.3926 78.9133 38.386 79.0147 38.3729C79.1161 38.3598 79.1976 38.3466 79.2593 38.3335L79.266 39.5406C79.1337 39.58 78.9794 39.615 78.8031 39.6456C78.6311 39.6762 78.4327 39.6915 78.2079 39.6915C77.842 39.6915 77.518 39.6281 77.2358 39.5013C76.9537 39.3701 76.7333 39.1579 76.5746 38.8649C76.4159 38.5719 76.3365 38.1826 76.3365 37.6972V33.6166H75.1727V32.462H76.3365V30.7234H77.9302V32.462H79.2064ZM84.3181 39.0617C84.3911 38.9955 84.4591 38.9281 84.5223 38.8597L84.5297 38.9108C84.5738 39.1732 84.6333 39.3897 84.7082 39.5603H86.3416V39.4553C86.2534 39.2673 86.1851 39.0464 86.1366 38.7927C86.0925 38.5347 86.0704 38.2439 86.0704 37.9202V34.7647C86.0704 34.2223 85.9492 33.7718 85.7067 33.4132C85.4687 33.0502 85.1403 32.779 84.7215 32.5997C84.3071 32.4204 83.8309 32.3307 83.2931 32.3307C82.8434 32.3307 82.4379 32.3898 82.0764 32.5079C81.7149 32.626 81.4041 32.7878 81.144 32.9933C80.8839 33.1989 80.6855 33.4329 80.5488 33.6953C80.4122 33.9577 80.3438 34.2289 80.3438 34.5088H81.9309C81.9309 34.3207 81.9838 34.1524 82.0896 34.0036C82.1954 33.8549 82.3431 33.7369 82.5326 33.6494C82.7222 33.5619 82.947 33.5182 83.2071 33.5182C83.4893 33.5182 83.7229 33.5685 83.9081 33.6691C84.0976 33.7697 84.2387 33.9118 84.3313 34.0955C84.4239 34.2792 84.4702 34.4979 84.4702 34.7515V35.2436H83.4518C82.9316 35.2436 82.4687 35.2961 82.0631 35.401C81.6576 35.5016 81.3137 35.6503 81.0315 35.8471C80.7538 36.0439 80.5422 36.2889 80.3967 36.5819C80.2557 36.8705 80.1851 37.2029 80.1851 37.5791C80.1851 37.9814 80.2887 38.3423 80.4959 38.6615C80.7031 38.9764 80.9897 39.2279 81.3556 39.416C81.7215 39.5997 82.1381 39.6915 82.6054 39.6915C82.9757 39.6915 83.3019 39.6325 83.5841 39.5144C83.8706 39.3963 84.1153 39.2454 84.3181 39.0617Z" fill="white" fill-opacity="0.65"/>
</svg>
