<svg width="21" height="20" viewBox="0 0 21 20" fill="none" xmlns="http://www.w3.org/2000/svg">
<path d="M10.0833 1.66675C6.175 1.66675 3 4.84175 3 8.75008C3 12.6584 6.175 15.8334 10.0833 15.8334H10.5V18.3334C14.55 16.3834 17.1667 12.5001 17.1667 8.75008C17.1667 4.84175 13.9917 1.66675 10.0833 1.66675ZM10.9167 13.7501H9.25V12.0834H10.9167V13.7501ZM10.9167 10.8334H9.25C9.25 8.12508 11.75 8.33342 11.75 6.66675C11.75 5.75008 11 5.00008 10.0833 5.00008C9.16667 5.00008 8.41667 5.75008 8.41667 6.66675H6.75C6.75 4.82508 8.24167 3.33341 10.0833 3.33341C11.925 3.33341 13.4167 4.82508 13.4167 6.66675C13.4167 8.75008 10.9167 8.95842 10.9167 10.8334Z" fill="white"/>
</svg>
