<svg width="26" height="26" viewBox="0 0 26 26" fill="none" xmlns="http://www.w3.org/2000/svg">
<path d="M18.6551 4.14997L15.9779 1.52054C15.7569 1.30349 15.4596 1.18188 15.1498 1.18188H4.72674C4.07404 1.18188 3.54492 1.711 3.54492 2.3637V23.6364C3.54492 24.2891 4.07404 24.8182 4.72674 24.8182H21.2722C21.9249 24.8182 22.454 24.2891 22.454 23.6364V8.07118C22.454 7.73453 22.3104 7.41386 22.0593 7.18964L18.6551 4.14997Z" fill="white"/>
<path fill-rule="evenodd" clip-rule="evenodd" d="M15.8014 2.42385L18.1299 4.71081L20.8389 7.12971H16.0082C15.8939 7.12971 15.8014 7.03711 15.8014 6.92289V2.42385ZM15.0332 1.95007H4.72674C4.4983 1.95007 4.3131 2.13526 4.3131 2.3637V23.6364C4.3131 23.8649 4.49829 24.0501 4.72674 24.0501H21.2722C21.5006 24.0501 21.6858 23.8649 21.6858 23.6364V8.07118C21.6858 8.01067 21.6726 7.95163 21.6478 7.89789H16.0082C15.4697 7.89789 15.0332 7.46136 15.0332 6.92289V1.95007ZM15.9779 1.52054L18.6551 4.14997L22.0593 7.18964C22.3104 7.41386 22.454 7.73453 22.454 8.07118V23.6364C22.454 24.2891 21.9249 24.8182 21.2722 24.8182H4.72674C4.07404 24.8182 3.54492 24.2891 3.54492 23.6364V2.3637C3.54492 1.711 4.07404 1.18188 4.72674 1.18188H15.1498C15.4596 1.18188 15.7569 1.30349 15.9779 1.52054Z" fill="black" fill-opacity="0.52"/>
<path d="M5.9082 11.8183C5.9082 11.1656 6.43732 10.6365 7.09002 10.6365H22.4537C23.1064 10.6365 23.6355 11.1656 23.6355 11.8183V20.091C23.6355 20.7437 23.1064 21.2728 22.4537 21.2728H7.09002C6.43732 21.2728 5.9082 20.7437 5.9082 20.091V11.8183Z" fill="#CC0033"/>
<path d="M11.1594 16.5253H10.089V15.8501H11.1594C11.3248 15.8501 11.4595 15.8232 11.5633 15.7694C11.6672 15.7136 11.7432 15.6366 11.7913 15.5385C11.8394 15.4404 11.8634 15.3298 11.8634 15.2067C11.8634 15.0817 11.8394 14.9653 11.7913 14.8576C11.7432 14.7499 11.6672 14.6633 11.5633 14.5979C11.4595 14.5325 11.3248 14.4998 11.1594 14.4998H10.389V18.0228H9.52344V13.8218H11.1594C11.4883 13.8218 11.7701 13.8814 12.0048 14.0007C12.2414 14.118 12.4222 14.2805 12.5472 14.4883C12.6723 14.696 12.7348 14.9336 12.7348 15.201C12.7348 15.4722 12.6723 15.7068 12.5472 15.905C12.4222 16.1031 12.2414 16.256 12.0048 16.3637C11.7701 16.4714 11.4883 16.5253 11.1594 16.5253Z" fill="white"/>
<path d="M14.799 18.0228H13.8844L13.8902 17.3476H14.799C15.026 17.3476 15.2174 17.2966 15.3732 17.1947C15.529 17.0908 15.6463 16.9398 15.7252 16.7417C15.806 16.5436 15.8464 16.3041 15.8464 16.0233V15.8184C15.8464 15.603 15.8233 15.4135 15.7771 15.25C15.7329 15.0865 15.6665 14.949 15.5781 14.8374C15.4896 14.7258 15.3809 14.6422 15.252 14.5864C15.1231 14.5287 14.975 14.4998 14.8077 14.4998H13.8671V13.8218H14.8077C15.0885 13.8218 15.3453 13.8699 15.5781 13.966C15.8127 14.0603 16.0157 14.1959 16.1869 14.3729C16.3581 14.5498 16.4898 14.7614 16.5821 15.0076C16.6764 15.2519 16.7235 15.5241 16.7235 15.8242V16.0233C16.7235 16.3214 16.6764 16.5936 16.5821 16.8398C16.4898 17.086 16.3581 17.2976 16.1869 17.4746C16.0176 17.6496 15.8147 17.7852 15.5781 17.8814C15.3434 17.9756 15.0837 18.0228 14.799 18.0228ZM14.3749 13.8218V18.0228H13.5093V13.8218H14.3749Z" fill="white"/>
<path d="M18.3954 13.8218V18.0228H17.5298V13.8218H18.3954ZM20.0689 15.6164V16.2916H18.1588V15.6164H20.0689ZM20.2708 13.8218V14.4998H18.1588V13.8218H20.2708Z" fill="white"/>
</svg>
