<svg viewBox="0 0 11 11" fill="none" xmlns="http://www.w3.org/2000/svg">
<g id="Group 2707">
<path id="Vector (Stroke)" fill-rule="evenodd" clip-rule="evenodd" d="M2.32131 3.48153C2.23618 3.48153 2.15454 3.51534 2.09434 3.57554C2.03414 3.63574 2.00033 3.71738 2.00033 3.80251V9.23461C2.00033 9.31974 2.03414 9.40139 2.09434 9.46159C2.15454 9.52178 2.23618 9.5556 2.32131 9.5556H7.75341C7.83854 9.5556 7.92019 9.52178 7.98038 9.46159C8.04058 9.40139 8.0744 9.31974 8.0744 9.23461V6.27165C8.0744 5.90346 8.37288 5.60498 8.74107 5.60498C9.10926 5.60498 9.40773 5.90346 9.40773 6.27165V9.23461C9.40773 9.67337 9.23344 10.0941 8.92319 10.4044C8.61295 10.7146 8.19216 10.8889 7.75341 10.8889H2.32131C1.88256 10.8889 1.46178 10.7146 1.15153 10.4044C0.841286 10.0941 0.666992 9.67337 0.666992 9.23461V3.80251C0.666992 3.36376 0.841286 2.94298 1.15153 2.63273C1.46178 2.32249 1.88256 2.14819 2.32131 2.14819H5.28428C5.65247 2.14819 5.95094 2.44667 5.95094 2.81486C5.95094 3.18305 5.65247 3.48153 5.28428 3.48153H2.32131Z" fill="white" fill-opacity="0.65"/>
<path id="Union" d="M10.664 0.833641C10.6858 0.852838 10.7062 0.87343 10.7253 0.895277C10.7684 0.944613 10.803 0.998784 10.8291 1.05589C10.8679 1.14038 10.8895 1.23438 10.8895 1.33341V4.29638C10.8895 4.66457 10.591 4.96304 10.2228 4.96304C9.85462 4.96304 9.55614 4.66457 9.55614 4.29638V2.94287L5.26209 7.23692C5.00175 7.49727 4.57964 7.49727 4.31929 7.23692C4.05894 6.97657 4.05894 6.55446 4.31929 6.29411L8.61331 2.00008H7.25985C6.89166 2.00008 6.59318 1.7016 6.59318 1.33341C6.59318 0.965225 6.89166 0.666748 7.25985 0.666748H10.2227C10.2226 0.666748 10.2227 0.666748 10.2227 0.666748C10.3919 0.666748 10.5465 0.729779 10.664 0.833641Z" fill="white" fill-opacity="0.65"/>
</g>
</svg>
