<svg width="24" height="24" viewBox="0 0 24 24" fill="none" xmlns="http://www.w3.org/2000/svg">
<g clip-path="url(#clip0_13952_36192)">
<path fill-rule="evenodd" clip-rule="evenodd" d="M0 12C0 5.37258 5.37258 0 12 0C18.6274 0 24 5.37258 24 12C24 18.6274 18.6274 24 12 24C5.37258 24 0 18.6274 0 12ZM12 1.38462C6.13728 1.38462 1.38462 6.13728 1.38462 12C1.38462 17.8627 6.13728 22.6154 12 22.6154C17.8627 22.6154 22.6154 17.8627 22.6154 12C22.6154 6.13728 17.8627 1.38462 12 1.38462Z" fill="#519618"/>
<path fill-rule="evenodd" clip-rule="evenodd" d="M17.1301 8.24072C17.2284 8.32106 17.2433 8.46573 17.1635 8.56447L10.6293 16.6483C10.5436 16.7544 10.3852 16.7634 10.288 16.6678L6.85601 13.2903C6.76553 13.2013 6.76396 13.0559 6.85251 12.9649L7.38035 12.4226C7.46959 12.3309 7.61639 12.3293 7.70758 12.419L10.1856 14.8576C10.2827 14.9533 10.4412 14.9443 10.5269 14.8382L16.2192 7.79591C16.2996 7.69642 16.4456 7.68134 16.5447 7.7623L17.1301 8.24072Z" fill="#519618"/>
</g>
<defs>
<clipPath id="clip0_13952_36192">
<rect width="24" height="24" fill="white"/>
</clipPath>
</defs>
</svg>
